<svg aria-hidden="true" style="position: absolute; width: 0; height: 0; overflow: hidden;" version="1.1" xmlns="http://www.w3.org/2000/svg" xmlns:xlink="http://www.w3.org/1999/xlink">
    <defs>
        <symbol id="arrow-icon" viewBox="0 0 32 32">
            <title>Arrow Icon</title>
            <path d="M29.7 8.3c-.9-.9-2.3-.9-3.3 0L16 18.8 5.6 8.3c-1-.9-2.4-.9-3.3 0s-1 2.4 0 3.3l12 12c.5.5 1 .8 1.7.8.6 0 1.2-.3 1.6-.7l12.1-12.1c1-1 1-2.4 0-3.3z"/>
        </symbol>
        <symbol id="arrow-up-icon" viewBox="0 0 32 32">
            <title>Arrow Up Icon</title>
            <path d="M2.3 23.7c.9.9 2.3.9 3.3 0L16 13.2l10.4 10.5c1 .9 2.4.9 3.3 0 1-1 1-2.4 0-3.3l-12-12c-.5-.5-1-.8-1.7-.8-.6 0-1.2.3-1.6.7l-12.1 12c-1 1-1 2.5 0 3.4z"/>
        </symbol>
        <symbol id="arrow-up-2-icon" viewBox="0 0 32 32">
            <title>Arrow Icon 2</title>
            <path d="M4.1 15.49c.76.77 2.04.77 2.84 0l7.04-7.04v19.93c0 1.12.9 2.02 2.02 2.02s2.02-.9 2.02-2.02V8.45l7.04 7.04c.76.77 2.04.77 2.84 0 .77-.77.77-2.05 0-2.85L17.4 2.18a1.99 1.99 0 0 0-2.82 0L4.11 12.68a2 2 0 0 0 0 2.8z"/>
        </symbol>
        <symbol id="search-icon" viewBox="0 0 32 32">
            <title>Search Icon</title>
            <path d="M12.77 1.6C9.34 1.6 6.14 3.14 4 5.82a11.35 11.35 0 0 0 .13 14.08 11.2 11.2 0 0 0 14.62 2.34l.2-.13 7.58 7.65c.83.86 2.33.86 3.17 0a2.29 2.29 0 0 0 .06-3.23l-7.62-7.62.13-.19A11.14 11.14 0 0 0 20.7 4.9a11.03 11.03 0 0 0-7.93-3.3zm5.63 16.83a7.94 7.94 0 0 1-11.26 0 7.94 7.94 0 0 1 0-11.26 7.94 7.94 0 0 1 11.26 0 7.94 7.94 0 0 1 0 11.26z"/>
        </symbol>
        <symbol id="dismiss-icon" viewBox="0 0 32 32">
            <title>Dismiss Icon</title>
            <path d="M20.2 16l9.3-9.3c1.2-1.2 1.2-3 0-4.2s-3-1.2-4.2 0L16 11.8 6.7 2.5c-1.2-1.2-3-1.2-4.2 0s-1.2 3 0 4.2l9.3 9.3-9.3 9.3c-1.2 1.2-1.2 3 0 4.2s3 1.2 4.2 0l9.3-9.3 9.3 9.3c1.2 1.2 3 1.2 4.2 0s1.2-3 0-4.2L20.2 16z"/>
        </symbol>
        <symbol id="burger-icon" viewBox="0 0 32 32">
            <title>Burger Icon</title>
            <path d="M28.48 23.71H3.55c-1.09 0-1.95.83-1.95 1.92s.86 1.92 1.95 1.92h24.9c1.09 0 1.95-.83 1.95-1.92s-.83-1.92-1.92-1.92zm0-9.63H3.55c-1.09 0-1.95.83-1.95 1.92s.86 1.92 1.95 1.92h24.9c1.09 0 1.95-.83 1.95-1.92s-.83-1.92-1.92-1.92zm0-9.6H3.55c-1.09 0-1.95.83-1.95 1.92s.86 1.92 1.95 1.92h24.9c1.09 0 1.95-.83 1.95-1.92s-.83-1.92-1.92-1.92z"/>
        </symbol>
        <symbol id="more-icon" viewBox="0 0 32 32">
            <title>More Icon</title>
            <path d="M5.2 19.6A3.6 3.6 0 1 1 8.8 16c0 2-1.6 3.6-3.6 3.6zm10.8 0a3.6 3.6 0 1 1 0-7.2 3.6 3.6 0 0 1 0 7.2zm10.8 0a3.6 3.6 0 1 1 0-7.2 3.6 3.6 0 0 1 0 7.2z"/>
        </symbol>
        <symbol id="arrow-up-down-icon" viewBox="0 0 32 32">
            <title>Arrow Up-Down Icon</title>
            <path d="M6.8 10.7a1.6 1.6 0 0 0 2.2 0l7-7 7 7a1.6 1.6 0 0 0 2.2 0 1.6 1.6 0 0 0 0-2.2L17 .5a1.5 1.5 0 0 0-1-.5 1.4 1.4 0 0 0-1.2.5l-8 8a1.6 1.6 0 0 0 0 2.2zm18.4 10.6a1.6 1.6 0 0 0-2.2 0l-7 7-7-7a1.6 1.6 0 0 0-2.1 0 1.6 1.6 0 0 0 0 2.2l8 8a1.5 1.5 0 0 0 1.1.5 1.4 1.4 0 0 0 1.1-.5l8-8a1.6 1.6 0 0 0 .1-2.2z"/>
        </symbol>
    </defs>
</svg>