<svg style="position: absolute; width: 0; height: 0; overflow: hidden;" version="1.1" xmlns="http://www.w3.org/2000/svg" xmlns:xlink="http://www.w3.org/1999/xlink">
    <defs>
        <symbol id="arrow-icon" viewBox="0 0 32 32">
            <path d="M29.728 8.32c-0.896-0.896-2.368-0.896-3.296 0l-10.432 10.432-10.432-10.432c-0.896-0.896-2.368-0.896-3.296 0s-0.896 2.368 0 3.296l12.096 12.064c0.448 0.448 1.024 0.672 1.632 0.672 0.608 0.032 1.184-0.224 1.632-0.672l12.096-12.096c0.896-0.896 0.896-2.368 0-3.264z"></path>
        </symbol>
        <symbol id="arrow-up-icon" viewBox="0 0 32 32">
            <path d="M2.272 23.68c0.896 0.896 2.368 0.896 3.296 0l10.432-10.432 10.432 10.432c0.896 0.896 2.368 0.896 3.296 0 0.896-0.896 0.896-2.368 0-3.296l-12.096-12.064c-0.448-0.448-1.024-0.672-1.632-0.672-0.608-0.032-1.184 0.224-1.632 0.672l-12.096 12.064c-0.896 0.928-0.896 2.4 0 3.296z"></path>
        </symbol>
        <symbol id="arrow-up-2-icon" viewBox="0 0 32 32">
            <path d="M4.096 15.488c0.768 0.768 2.048 0.768 2.848 0l7.040-7.040v19.936c0 1.12 0.896 2.016 2.016 2.016s2.016-0.896 2.016-2.016v-19.936l7.040 7.040c0.768 0.768 2.048 0.768 2.848 0 0.768-0.768 0.768-2.048 0-2.848l-10.496-10.464c0 0 0 0 0 0-0.384-0.384-0.896-0.576-1.408-0.576s-1.024 0.192-1.408 0.576l-10.496 10.496c-0.768 0.768-0.768 2.048 0 2.816z"></path>
        </symbol>
        <symbol id="search-icon" viewBox="0 0 32 32">
            <path d="M12.768 1.6c-3.424 0-6.624 1.536-8.768 4.224-3.232 4.032-3.168 10.080 0.128 14.080 2.144 2.592 5.312 4.064 8.64 4.064 2.112 0 4.192-0.608 5.984-1.728l0.192-0.128 7.584 7.648c0.832 0.864 2.336 0.864 3.168 0 0.448-0.448 0.704-1.024 0.704-1.632s-0.224-1.152-0.64-1.6l-7.616-7.616 0.128-0.192c2.784-4.448 2.112-10.112-1.568-13.824-2.112-2.144-4.928-3.296-7.936-3.296zM18.4 18.432c-1.504 1.504-3.52 2.336-5.632 2.336-2.144 0-4.128-0.832-5.632-2.336s-2.336-3.52-2.336-5.632c0-2.144 0.832-4.128 2.336-5.632s3.52-2.336 5.632-2.336c2.144 0 4.128 0.832 5.632 2.336s2.336 3.52 2.336 5.632-0.832 4.128-2.336 5.632z"></path>
        </symbol>
        <symbol id="dismiss-icon" viewBox="0 0 32 32">
            <path d="M20.16 16l9.344-9.344c1.184-1.184 1.184-3.040 0.032-4.192s-3.040-1.12-4.192 0.032l-9.344 9.344-9.344-9.344c-1.184-1.184-3.040-1.184-4.192-0.032s-1.12 3.040 0.032 4.192l9.344 9.344-9.344 9.344c-1.184 1.184-1.184 3.040-0.032 4.192s3.040 1.12 4.192-0.032l9.344-9.344 9.344 9.344c1.184 1.184 3.040 1.184 4.192 0.032s1.12-3.040-0.032-4.192l-9.344-9.344z"></path>
        </symbol>
        <symbol id="burger-icon" viewBox="0 0 32 32">
            <path d="M28.48 23.712h-24.928c-1.088 0-1.952 0.832-1.952 1.92s0.864 1.92 1.952 1.92h24.896c1.088 0 1.952-0.832 1.952-1.92s-0.832-1.92-1.92-1.92z"></path>
            <path d="M28.48 14.080h-24.928c-1.088 0-1.952 0.832-1.952 1.92s0.864 1.92 1.952 1.92h24.896c1.088 0 1.952-0.832 1.952-1.92s-0.832-1.92-1.92-1.92z"></path>
            <path d="M28.48 4.48h-24.928c-1.088 0-1.952 0.832-1.952 1.92s0.864 1.92 1.952 1.92h24.896c1.088 0 1.952-0.832 1.952-1.92s-0.832-1.92-1.92-1.92z"></path>
        </symbol>
        <symbol id="more-icon" viewBox="0 0 32 32">
            <path d="M5.184 19.584c-1.984 0-3.584-1.6-3.584-3.584s1.6-3.584 3.584-3.584c1.984 0 3.584 1.6 3.584 3.584 0.032 1.984-1.568 3.584-3.584 3.584z"></path>
            <path d="M16 19.584c-1.984 0-3.584-1.6-3.584-3.584s1.6-3.584 3.584-3.584c1.984 0 3.584 1.6 3.584 3.584s-1.6 3.584-3.584 3.584z"></path>
            <path d="M26.816 19.584c-1.984 0-3.584-1.6-3.584-3.584s1.6-3.584 3.584-3.584c1.984 0 3.584 1.6 3.584 3.584s-1.6 3.584-3.584 3.584z"></path>
        </symbol>
    </defs>
</svg>